PathFileType	4	(X/Y/Z)	Kaydara	
DataRate	CameraRate	NumFrames	NumMarkers	Units	OrigDataRate	OrigDataStartFrame	OrigNumFrames	
240.00	240.00	4	72	mm	240.00	222	355	
Frame#	Time	Hips			RightUpLeg			RightLeg			RightFoot			RightFoot_End			LeftUpLeg			LeftLeg			LeftFoot			LeftFoot_End			Spine			Spine1			Spine2			Spine3			Neck			Head			Head_End			RightShoulder			RightArm			RightForeArm			RightHand			RightHandThumb1			RightHandThumb2			RightHandThumb3			RightHandThumb3_End			RightInHandIndex			RightHandIndex1			RightHandIndex2			RightHandIndex3			RightHandIndex3_End			RightInHandMiddle			RightHandMiddle1			RightHandMiddle2			RightHandMiddle3			RightHandMiddle3_End			RightInHandRing			RightHandRing1			RightHandRing2			RightHandRing3			RightHandRing3_End			RightInHandPinky			RightHandPinky1			RightHandPinky2			RightHandPinky3			RightHandPinky3_End			LeftShoulder			LeftArm			LeftForeArm			LeftHand			LeftHandThumb1			LeftHandThumb2			LeftHandThumb3			LeftHandThumb3_End			LeftInHandIndex			LeftHandIndex1			LeftHandIndex2			LeftHandIndex3			LeftHandIndex3_End			LeftInHandMiddle			LeftHandMiddle1			LeftHandMiddle2			LeftHandMiddle3			LeftHandMiddle3_End			LeftInHandRing			LeftHandRing1			LeftHandRing2			LeftHandRing3			LeftHandRing3_End			LeftInHandPinky			LeftHandPinky1			LeftHandPinky2			LeftHandPinky3			LeftHandPinky3_End			
		X1	Y1	Z1	X2	Y2	Z2	X3	Y3	Z3	X4	Y4	Z4	X5	Y5	Z5	X6	Y6	Z6	X7	Y7	Z7	X8	Y8	Z8	X9	Y9	Z9	X10	Y10	Z10	X11	Y11	Z11	X12	Y12	Z12	X13	Y13	Z13	X14	Y14	Z14	X15	Y15	Z15	X16	Y16	Z16	X17	Y17	Z17	X18	Y18	Z18	X19	Y19	Z19	X20	Y20	Z20	X21	Y21	Z21	X22	Y22	Z22	X23	Y23	Z23	X24	Y24	Z24	X25	Y25	Z25	X26	Y26	Z26	X27	Y27	Z27	X28	Y28	Z28	X29	Y29	Z29	X30	Y30	Z30	X31	Y31	Z31	X32	Y32	Z32	X33	Y33	Z33	X34	Y34	Z34	X35	Y35	Z35	X36	Y36	Z36	X37	Y37	Z37	X38	Y38	Z38	X39	Y39	Z39	X40	Y40	Z40	X41	Y41	Z41	X42	Y42	Z42	X43	Y43	Z43	X44	Y44	Z44	X45	Y45	Z45	X46	Y46	Z46	X47	Y47	Z47	X48	Y48	Z48	X49	Y49	Z49	X50	Y50	Z50	X51	Y51	Z51	X52	Y52	Z52	X53	Y53	Z53	X54	Y54	Z54	X55	Y55	Z55	X56	Y56	Z56	X57	Y57	Z57	X58	Y58	Z58	X59	Y59	Z59	X60	Y60	Z60	X61	Y61	Z61	X62	Y62	Z62	X63	Y63	Z63	X64	Y64	Z64	X65	Y65	Z65	X66	Y66	Z66	X67	Y67	Z67	X68	Y68	Z68	X69	Y69	Z69	X70	Y70	Z70	X71	Y71	Z71	X72	Y72	Z72	

222	0.921	6921.0129	906.651	56.2195	6962.284903902424	875.5227074705098	-10.714745938181565	6882.451803883924	469.90491387587724	-74.3522138113152	6938.86584993235	101.42706957278045	-174.93192294133198	6864.367814455645	22.55792212765982	-17.59368619812782	6886.90716094272	908.8023290737343	134.68405805127122	6832.488629626999	506.164198436242	236.0365034768875	6766.395810929882	75.07829146250232	291.8166909660414	6641.259341401926	-8.42151454228434	174.34013078328195	6887.4484237163115	1036.5293950922767	6.554114456459332	6840.481613101019	1108.0618700327432	-39.404260642475215	6786.165899261909	1177.1299317552578	-89.1941511710288	6726.312233171179	1233.6390258972606	-140.03466180266386	6661.676008775911	1293.7858083926412	-193.70455283862754	6601.636686279722	1348.3361636727996	-241.57766966031966	6478.242811493112	1437.6397337640603	-288.11185410375924	6696.747141255082	1268.532324862321	-197.649973576454	6737.566909877565	1254.1477585703506	-295.58439779309344	6720.660378156083	1025.5488982989928	-274.5436508674603	6713.665768653482	891.5799684356097	-391.0602735506586	6717.63989692879	902.8507418423873	-408.8897864422914	6707.402588651717	903.4869286781407	-424.2678144024412	6700.083060324666	900.4619009370023	-434.6818384727716	6693.818319132691	894.9732229197706	-443.11098977608987	6718.7835960039365	891.5031374819636	-409.93830083164	6719.5707909918365	878.3039066278767	-435.6543679988197	6712.313895238273	868.8492439892048	-451.03418390621414	6703.612169915881	866.6727332958116	-457.4597759023344	6693.583393272913	867.3679759594576	-460.6628830183248	6717.867735562734	882.5171581668595	-408.12064205454647	6718.14238034769	864.7825816061127	-432.22086605534395	6710.090514850659	853.3224610956025	-448.6769119021044	6699.52829858198	850.1480023612545	-456.27251527542455	6688.523931211148	850.6420424904586	-459.7011442844642	6717.278754689657	876.4828233292435	-406.20896839074555	6717.242293307875	855.2848491145603	-426.23217923484657	6710.086870480157	844.155894748246	-440.2034253312102	6699.825804707368	840.4883369278197	-447.33247741397815	6689.444342220506	840.6659109287464	-450.4626522255122	6715.961387197699	870.0880633200978	-403.0342737831577	6715.378317869144	846.6230898185976	-419.5469819890457	6709.433761793762	836.0250934121893	-430.0668910126456	6701.845410302984	832.5342210602996	-434.9438388607125	6692.589333647807	832.2220559227582	-437.53076695777884	6669.41176126235	1279.8644805578956	-152.8712434288701	6635.207900484901	1253.6257484736504	-56.59063589516056	6683.070237786939	1061.1165670216553	-164.97800706671757	6728.670878965265	904.2143989545424	-277.5512892645004	6713.816022394671	910.7122903958874	-292.036116332062	6703.796177131191	896.926612263473	-313.0466514167161	6696.779774769797	884.4240175084553	-326.8950518622628	6690.897501607719	871.5183521181973	-337.7697388818853	6711.53388620086	902.0602898688273	-289.8713373590238	6688.582753015078	882.9981184732826	-308.7645530137364	6676.782389073263	863.5600417729689	-325.57498743490794	6673.548128761668	851.9304960724648	-337.2084972492762	6673.638075483666	842.6117005877115	-347.6351631953607	6712.426059785052	894.5367293922369	-287.2572789038599	6690.521600793287	871.8763232775694	-304.2701644446176	6677.842430892183	849.7269193316662	-322.212063703371	6674.03514403535	835.2458977483886	-336.05473862450697	6674.1796163203	824.8304909434103	-347.36970809081197	6713.594880438242	889.747682001668	-284.8897713478367	6694.840711297793	865.3989648066473	-297.9687530437223	6684.026280297355	845.1693927274682	-313.1700893963276	6680.479603652514	830.7105638565026	-326.29043851393743	6680.6750423804215	820.6849114980051	-336.8194157981659	6715.978558385543	884.4658826316436	-281.91742501591455	6700.081166495296	859.0049444931501	-291.9576907246395	6691.872910109904	841.4700861975804	-303.39201020983984	6689.504375418725	830.2776008484318	-312.6048840201071	6689.803207329568	821.0246340586939	-321.7262936847565
223	0.925	6921.0129	906.651	56.2195	6961.619340453778	875.2457240466621	-10.93777119592891	6881.877480360179	469.56360934754014	-74.26732865900082	6939.161380827323	101.31116158452548	-175.22233685076628	6864.681371078642	22.399680669106758	-17.89674632401345	6887.555255712016	909.078107879772	134.91363037502236	6833.242774149636	506.473652693736	236.44216057174876	6766.619035621588	75.40421338597537	291.7546745986366	6641.623696100482	-8.244596663538244	174.23793789934297	6887.543445500831	1036.5441121967879	6.5352095660393115	6840.521218597266	1108.0940126992573	-39.3336699996945	6786.131284932796	1177.1860189511337	-88.99789068982294	6726.180301328138	1233.7313588807026	-139.65972175930446	6661.439931847209	1293.9128836558718	-193.13935431207616	6601.313776452507	1348.5012019946885	-240.8350994240588	6477.875291107746	1437.821122217043	-287.18897988072604	6696.290535963807	1268.442040394869	-197.15841657606478	6736.101918041922	1253.2371183862567	-294.5295979118338	6718.817531374612	1025.6496972108898	-271.71424381117447	6710.712610371746	891.9168960172528	-385.7689906609702	6714.567603501024	903.1545620373686	-403.4252506410659	6704.393908755005	903.6948986309229	-418.4589184544882	6697.121507746368	900.6081276590625	-428.6151454304752	6690.898472891328	895.072260215281	-436.81399707666026	6715.69061016012	891.8294939454369	-404.40131445393297	6716.360766085485	878.5996495780777	-429.6408815396184	6709.12869561553	869.082950976225	-444.64682049713986	6700.507516687315	866.8438116475012	-450.8683906599749	6690.5893286729115	867.470986781973	-453.9217973299312	6714.791563307158	882.856262029926	-402.5493156973017	6714.961115855258	865.098732649935	-426.1662133939505	6706.939070567674	853.572649001591	-442.2112468146936	6696.475341214806	850.3234614294227	-449.55924748283707	6685.592615059709	850.7434269667781	-452.823368403303	6714.216363981393	876.8321546529041	-400.6257572943182	6714.094511110982	855.6237763293096	-420.2061291131367	6706.968048543668	844.4391282115823	-433.8167891053399	6696.803558014424	840.7004443227112	-440.70576285543007	6686.537216191517	840.8088224742655	-443.6806682884917	6712.926809794784	870.4466013072667	-397.4494607274057	6712.278891894767	846.9792283924224	-413.55558604584303	6706.362538278159	836.339484748052	-423.78502041287203	6698.847053703809	832.798111511979	-428.48601695521967	6689.694350615509	832.4254436039114	-430.9349198200739	6669.48040368725	1280.1925863782908	-152.3669245754898	6636.294339162408	1254.9814867882176	-55.96300191090841	6683.236764382359	1061.7709778661124	-162.72495588236362	6726.82188282036	904.1801717955096	-273.465355734846	6712.019576832777	910.6352899022688	-287.59238887257175	6702.008420608208	896.8639903433431	-308.2201893746318	6695.025240280189	884.3667254328752	-321.81809593428346	6689.193906937533	871.4614967759594	-332.49768095805376	6709.854878855403	901.9542536375014	-285.4540726022047	6687.198413519811	882.8010130962672	-303.8926999638608	6675.521831564343	863.34401680653	-320.3772685000609	6672.274914544827	851.7379922347399	-331.8251700005372	6672.293939282109	842.4624649767312	-342.1096631471668	6710.806833696847	894.4232378286891	-282.89901711092597	6689.222143770887	871.6699603161275	-299.5004283454395	6676.684875338428	849.4992785319637	-317.0959910608331	6672.865596204514	835.0463307857767	-330.7191742571829	6672.9340602796465	824.6781197046228	-341.88073838754633	6712.011431919457	889.6307470350116	-280.58490657574265	6693.578003014965	865.1943461315379	-293.34180253085606	6682.893719841704	844.9457333315887	-308.251370241985	6679.338909292766	830.5137211722964	-321.16536568180226	6679.464508134277	820.5323202250875	-331.55264497176586	6714.4194461168845	884.3515572227075	-277.68639831193445	6698.834895681044	858.8100972864454	-287.47699562390983	6690.739537901777	841.2596058985782	-298.6948378507765	6688.369269632254	830.0864940493552	-307.76549743271147	6688.608651518598	820.8726193649736	-316.76616304683114
224	0.929	6921.0129	906.651	56.2195	6960.95136869143	874.9682123103322	-11.160329652984204	6881.3038032835675	469.2213431120137	-74.18225161969632	6939.456911146299	101.19513061925672	-175.5137247692874	6864.995297373505	22.241405490374557	-18.200564848203584	6888.205711237649	909.354453430782	135.14283752659543	6833.998784623903	506.78409329166556	236.84865315545346	6766.842864729296	75.7314267789609	291.6936671160413	6641.989113826166	-8.066651951651796	174.1365399331899	6887.638749259115	1036.5586800185567	6.515851714421003	6840.560709736511	1108.1260150807832	-39.262921989156546	6786.096097367785	1177.242068973065	-88.80053517761425	6726.047329810488	1233.8240091281752	-139.28225955826085	6661.202327314013	1294.04066692194	-192.57009147023354	6600.989000740807	1348.6674113633424	-240.0870176272722	6477.50615378534	1438.0047374158062	-286.2585791574452	6695.830873918191	1268.3514988726977	-196.6626777148935	6734.62540179281	1252.3208129404456	-293.46313945844884	6716.974733205148	1025.7569329366513	-268.85498889113234	6707.763867249083	892.2682124057767	-380.410409112274	6711.502254351958	903.4715545772013	-397.8914651294014	6701.3952340644955	903.9144871864514	-412.57781832867397	6694.171841108415	900.7651836503618	-422.4737561710861	6687.9918658421175	895.1817191380533	-430.4398589115573	6712.603802816848	892.1700778529944	-398.79325275371923	6713.159110320469	878.9099501333665	-423.5493210209833	6705.953915356429	869.3308177901691	-438.17698730360064	6697.414880422544	867.0281940269631	-444.1929604346261	6687.60882122809	867.5861828350862	-447.09614371926534	6711.720835898565	883.2103480955755	-396.90599827920994	6711.787035911511	865.4305963534637	-420.03224785544637	6703.796944780692	853.8382132461691	-435.6613747045054	6693.43358024186	850.5133112437528	-442.75982544775337	6682.674156464165	850.8580008207116	-445.85884333909416	6711.158837349345	877.1970013416311	-394.97007771105916	6710.95262881673	855.9793608014068	-414.1006077669182	6703.856878262161	844.7388244441665	-427.3463278473838	6693.790716896494	840.9281161924176	-433.99329825895916	6683.641030418213	840.96619373025	-436.81235276354516	6709.8964151737755	870.8211938069396	-391.7919030063071	6709.184157494563	847.3528293264467	-407.48481966597944	6703.297235795095	836.6713315693535	-417.4201862431436	6695.855813632421	833.0788742403408	-421.94377572660505	6686.807795348567	832.6447663631782	-424.25410847768796	6669.549446820982	1280.5221175262886	-151.8597646325309	6637.388125384128	1256.3448565123203	-55.336331098687985	6683.421751392566	1062.431953487578	-160.45407793275132	6724.9852569159175	904.1557040255439	-269.3324477447787	6710.238169640377	910.5694160255774	-283.10092678602695	6700.239498053025	896.8144108325448	-303.34329288824904	6693.292485849704	884.3237523604894	-316.6889229119639	6687.514807423295	871.4199754328506	-327.17200323311295	6708.192282207939	901.8592111800956	-280.98957296934145	6685.837601333557	882.6167994249498	-298.972622912216	6674.289529769226	863.1424817106955	-315.1294622321093	6671.031973794278	851.5610237252299	-326.38994935609605	6670.981124792731	842.3296650134578	-336.530337978719	6709.204583622723	894.3205305987342	-278.4937642125208	6687.9469099346115	871.4761195081462	-294.68286856798903	6675.556753829715	849.2858703565786	-311.93009538100205	6671.72794134262	834.8622417044985	-325.331624172891	6671.72155612736	824.5422036574031	-336.3376772193252	6710.445182876794	889.5243971847535	-276.2332605346187	6692.339199693931	865.0016888348456	-288.6675429463279	6681.789647028787	844.7354892749114	-303.2836351977283	6678.22909610874	830.3314753853631	-315.9892099098607	6678.285955024455	820.3952354831595	-326.2328202873676	6712.877540028043	884.2475545141008	-273.40876338492285	6697.612006737423	858.6266644670799	-282.94935607811374	6689.633251693637	841.0616407287562	-293.9494123993941	6687.26301238161	829.9087334780762	-302.8763781477963	6687.443928231275	820.7347389985251	-311.7545699757233
225	0.933	6921.0129	906.651	56.2195	6960.281105867598	874.6902230951191	-11.38237459408669	6880.730880203684	468.87817757557286	-74.09699387044436	6939.75242449999	101.07900578258548	-175.80604188307035	6865.309578978333	22.08313424532436	-18.505091761360884	6888.8584138651195	909.6313155352652	135.37163245576448	6834.756521223436	507.09546452178677	237.25590037870987	6767.067263241789	76.0598708916479	291.6336752556885	6642.355534037091	-7.8877141537565265	174.03595087225858	6887.73431597705	1036.5730939893806	6.49604037368431	6840.600079283999	1108.1578739091979	-39.19202749667681	6786.060345509097	1177.2980803180365	-88.60211104410578	6725.913349433028	1233.916976567369	-138.90232610267748	6660.9632494119005	1294.1691602087394	-191.99684134330073	6600.662434055287	1348.834795075405	-239.33352584693984	6477.135482847025	1438.1905805367148	-285.32077843468664	6695.368248211483	1268.2607465471742	-196.162815703194	6733.137652323566	1251.399092854228	-292.38515323540406	6715.132487424743	1025.870783063687	-265.96647407338173	6704.820348345951	892.6345622097588	-374.9857959562322	6708.444732350443	903.8024721868929	-392.28977083128325	6698.407447607074	904.1465240448993	-406.62596145608336	6691.234937482234	900.9339485223284	-416.2591951417929	6685.099364902789	895.3025177480258	-423.9901663664073	6709.52404859156	892.5256424471194	-393.1154726556101	6709.966746900657	879.2356972231235	-417.38119549014243	6702.790475580835	869.5938072689245	-431.6263044379386	6694.335162413539	867.2268704400701	-437.4351631222513	6684.642743318281	867.7145639432911	-440.1876403108315	6708.6564080599255	883.5801538606545	-391.19204941415126	6708.621031878476	865.7790340474869	-413.8204788826872	6700.665023750208	854.1200932656525	-429.0289260764314	6690.403876645141	850.7185227971987	-435.8759493254476	6679.769384111754	850.9867451951947	-438.8093132335821	6708.107014555685	877.5780865166231	-389.2432872689278	6707.817507014803	856.3524247707256	-407.91710536530184	6700.754212827416	845.0558709658858	-420.7936368734862	6690.788108594831	841.1722690102678	-427.196745926938	6680.75658103386	841.1389500096193	-429.85940921798897	6706.871021811063	871.2125417770853	-386.0629515830078	6706.094940263276	847.7446715785445	-401.33615130554415	6700.238669317531	837.0214603102494	-410.97394000048064	6692.872483860868	833.3773544775676	-415.31871497227814	6683.9304327545615	832.8808759275859	-417.48996895998255	6669.618887464898	1280.853028712454	-151.34984037085445	6638.489067138278	1257.7156079465533	-54.7107864820839	6683.6253052298125	1063.099479184458	-158.1659216181251	6723.161394638385	904.1414258244783	-265.15345053602806	6708.4721923991165	910.5151946589071	-278.5627230963996	6698.489819991127	896.7784413909523	-298.4170306104696	6691.581928524492	884.2956934642967	-311.5086453457983	6685.8606198395855	871.3944048524882	-321.7938473502271	6706.546459201382	901.7756982454597	-276.4788120489075	6684.500627861389	882.44613963376	-294.0053887757613	6673.08578356624	862.9561507768408	-309.8326891969924	6669.819622015587	851.4003090226172	-320.90398293602084	6669.699975830623	842.2140036113385	-330.89835345362525	6707.619657309966	894.2291330672454	-274.0424661576173	6686.696188537026	871.2954439237336	-289.81850714404163	6674.458341233172	849.08739292056	-306.7154532735477	6670.6224723032055	834.6943327955847	-319.8931957189812	6670.54242727113	824.4234276357804	-330.7416508611063	6708.896471335988	889.4291476323259	-271.8357573404988	6691.1245776178075	864.82160585435	-283.9469478612242	6680.714323851436	844.5393194175533	-298.26790123278465	6677.150442512288	830.1644882924668	-310.76301560059346	6677.139689750581	820.2743021377802	-320.8610028942075	6711.353170804432	884.1543713018023	-269.0854158850241	6696.41276816795	858.4552224706491	-278.37569583319265	6688.554306084199	840.8768002614008	-289.15668562798896	6686.185869050819	829.7449290914049	-297.9384946943457	6686.309327224682	820.6115869058397	-306.6924959630373
